<?xml version="1.0" standalone="no"?>
<!DOCTYPE svg PUBLIC "-//W3C//DTD SVG 20010904//EN"
 "http://www.w3.org/TR/2001/REC-SVG-20010904/DTD/svg10.dtd">
<svg version="1.0" xmlns="http://www.w3.org/2000/svg"
 width="1024.000000pt" height="1024.000000pt" viewBox="0 0 1024.000000 1024.000000"
 preserveAspectRatio="xMidYMid meet">

<g transform="translate(0.000000,1024.000000) scale(0.100000,-0.100000)"
fill="#000000" stroke="none">
<path d="M4850 9853 c-562 -27 -1108 -160 -1675 -410 -566 -249 -1006 -547
-1435 -973 -304 -301 -550 -620 -743 -960 -76 -135 -204 -389 -242 -481 -80
-191 -101 -247 -146 -379 -247 -721 -294 -1680 -124 -2508 45 -218 170 -614
262 -832 125 -295 212 -454 412 -755 334 -502 701 -873 1241 -1256 206 -145
211 -149 242 -133 56 29 150 9 135 -29 -5 -13 -16 -15 -57 -10 -27 3 -50 2
-50 -3 0 -7 111 -74 152 -92 5 -2 8 30 8 72 0 74 1 76 25 76 17 0 25 -6 25
-17 0 -15 1 -15 18 0 28 25 52 22 52 -8 0 -16 -6 -25 -15 -25 -30 0 -55 -38
-55 -85 l0 -44 88 -44 c92 -47 314 -144 472 -207 264 -105 659 -210 980 -259
337 -53 1016 -55 1375 -5 146 20 407 69 527 100 283 71 640 205 958 361 711
346 1346 899 1827 1589 223 321 409 698 544 1107 211 637 284 1496 188 2187
-117 832 -485 1661 -1032 2320 -217 261 -499 528 -777 734 -436 325 -994 613
-1475 761 -383 118 -634 166 -1050 200 -159 13 -468 17 -655 8z m715 -223
c350 -41 623 -92 840 -160 33 -10 94 -29 135 -41 67 -20 272 -95 325 -118 11
-5 43 -19 70 -31 472 -211 881 -471 1255 -800 246 -216 468 -463 660 -735 54
-77 210 -314 210 -320 0 -2 13 -23 29 -47 50 -74 216 -410 271 -548 74 -185
91 -240 77 -240 -7 0 -21 24 -31 53 -10 28 -27 70 -37 91 -11 22 -19 43 -19
47 0 29 -235 502 -294 594 -212 327 -314 469 -456 640 -102 123 -315 340 -430
439 -52 44 -104 89 -115 100 -46 42 -328 249 -435 318 -207 135 -468 276 -696
376 -439 194 -912 309 -1459 356 -426 37 -979 -16 -1480 -143 -170 -43 -479
-148 -623 -212 -424 -187 -831 -424 -1087 -630 -394 -317 -773 -737 -1007
-1113 -179 -288 -377 -716 -468 -1009 -29 -97 -95 -355 -135 -536 -36 -157
-53 -207 -41 -116 11 82 47 266 62 317 8 26 14 55 14 65 0 19 35 151 77 293
117 392 367 894 607 1220 316 428 727 826 1131 1095 670 445 1410 716 2160
789 88 9 174 18 190 20 58 8 601 -3 700 -14z m-195 -594 c39 -115 82 -230 95
-256 22 -43 29 -49 75 -60 47 -11 68 -25 57 -36 -6 -6 -259 14 -266 22 -8 8
21 24 47 24 12 0 22 6 22 13 0 6 -17 62 -38 122 l-38 110 -66 3 -66 3 -25 -53
c-42 -88 -77 -171 -75 -173 2 -1 18 -7 36 -14 17 -8 32 -19 32 -25 0 -13 -200
-10 -214 4 -15 14 3 28 44 35 36 6 43 13 64 53 30 59 125 286 156 372 13 36
30 73 38 83 15 17 16 17 33 0 10 -10 50 -112 89 -227z m863 53 c31 -10 64 -19
72 -19 20 0 19 -10 -5 -40 -11 -14 -20 -31 -20 -37 0 -21 -18 -15 -25 8 -10
29 -64 59 -107 59 -40 0 -78 -27 -78 -55 0 -9 29 -43 65 -77 80 -76 110 -132
95 -174 -34 -89 -145 -125 -275 -90 -65 17 -115 43 -115 60 0 7 9 21 20 31 20
18 21 18 43 -3 30 -28 106 -46 169 -40 40 4 57 11 75 33 33 38 24 58 -58 135
-78 74 -95 107 -79 155 13 39 38 63 76 74 35 10 70 5 147 -20z m-2003 -20 c0
-5 -5 -18 -12 -28 -9 -15 -8 -41 6 -123 31 -183 78 -248 167 -233 54 9 118 59
137 106 23 60 60 51 42 -11 -26 -91 -159 -163 -253 -139 -88 23 -135 104 -161
278 -10 68 -19 98 -32 108 -22 16 -11 30 42 48 38 13 64 11 64 -6z m2415 -139
c18 -20 18 -21 -7 -48 -14 -15 -47 -65 -74 -112 -27 -47 -68 -116 -91 -155
-24 -38 -43 -72 -43 -76 0 -7 114 -56 145 -62 11 -2 32 2 46 9 31 15 41 9 33
-21 -4 -18 1 -25 30 -39 40 -19 44 -27 20 -47 -14 -11 -22 -10 -55 9 -47 27
-282 126 -321 136 -37 8 -35 23 2 31 37 8 88 77 170 230 54 99 99 165 113 165
8 0 22 -9 32 -20z m-3125 -82 c0 -6 -7 -20 -17 -30 -15 -17 -13 -26 42 -151
37 -82 72 -145 92 -166 31 -31 37 -33 79 -28 52 5 83 30 109 87 23 51 45 43
45 -16 0 -37 -5 -46 -33 -68 -72 -55 -159 -71 -218 -41 -37 20 -81 89 -144
229 -27 59 -57 113 -67 120 -29 18 -21 30 35 53 61 25 77 27 77 11z m-180 -75
c0 -4 -12 -19 -26 -34 l-26 -27 23 -31 c12 -17 20 -34 16 -37 -7 -7 -107 56
-107 67 0 9 99 69 113 69 4 0 7 -3 7 -7z m3760 -72 c6 -12 10 -99 10 -213 0
-174 -2 -196 -20 -225 -37 -61 -120 -53 -226 22 -27 19 -55 35 -63 35 -21 0
-51 30 -51 50 0 11 10 20 29 23 29 6 68 52 220 255 56 74 82 88 101 53z
m-4043 -186 c84 -46 191 -109 240 -140 48 -30 98 -55 111 -55 33 0 19 -16 -33
-36 l-45 -17 -52 40 c-75 56 -338 217 -344 210 -10 -10 59 -193 109 -287 29
-57 37 -65 62 -65 38 0 43 -22 8 -37 -42 -19 -144 -86 -157 -103 -10 -14 -18
-12 -66 18 -30 18 -102 70 -159 115 -57 46 -116 86 -132 89 -24 4 -27 8 -18
19 6 8 16 14 22 14 6 0 18 7 27 15 15 14 22 12 66 -24 27 -21 92 -73 144 -115
52 -42 101 -76 107 -76 7 0 27 13 45 29 l32 29 -61 153 c-92 230 -110 309 -69
309 6 0 80 -38 163 -85z m2393 -95 c178 -20 387 -53 450 -70 19 -5 80 -21 135
-36 131 -35 350 -108 448 -150 126 -54 303 -163 482 -297 158 -118 475 -464
475 -518 0 -15 -33 18 -105 106 -146 176 -334 348 -512 468 -244 165 -455 258
-778 342 -339 89 -560 119 -875 120 -324 0 -574 -30 -909 -112 -456 -110 -830
-290 -1146 -550 -136 -112 -372 -351 -451 -458 -253 -338 -446 -754 -529
-1137 -18 -86 -40 -117 -32 -47 7 64 54 274 76 344 53 166 158 398 262 577 68
119 206 316 284 408 129 152 361 364 515 472 119 84 375 224 515 283 280 117
670 215 985 246 63 6 149 14 190 19 141 14 342 10 520 -10z m-299 -161 c16
-11 59 -25 96 -31 45 -6 84 -20 114 -39 28 -18 53 -27 63 -23 12 5 19 0 23
-14 3 -12 21 -27 41 -35 21 -8 93 -42 162 -75 69 -33 197 -94 285 -135 139
-65 160 -72 163 -56 5 27 60 69 90 69 33 0 74 -20 80 -39 4 -11 -6 -13 -55 -7
-49 5 -62 4 -66 -8 -4 -9 -2 -18 4 -21 5 -4 7 -10 4 -15 -3 -5 4 -11 15 -15
20 -6 51 5 53 21 3 15 71 11 83 -5 10 -13 23 -13 85 -4 72 10 109 4 109 -17 0
-6 -9 -10 -21 -10 -12 0 -23 -8 -26 -20 -7 -26 -23 -26 -30 1 -4 14 -10 18
-22 13 -9 -4 -25 -7 -36 -7 -11 0 -50 -3 -86 -8 -41 -5 -93 -5 -135 2 -38 6
-81 11 -96 11 -15 1 -25 4 -23 8 3 4 -19 19 -48 33 -94 45 -271 128 -307 144
-41 18 -77 35 -105 50 -37 20 -109 48 -111 43 -1 -3 -11 3 -22 13 -10 10 -28
20 -38 22 -11 2 -37 11 -59 19 -22 8 -52 15 -66 16 -15 0 -32 7 -39 15 -9 10
-9 15 -1 15 6 0 11 4 11 9 0 12 -93 32 -100 22 -8 -12 -72 -23 -65 -11 3 6 15
10 25 10 24 0 36 18 16 26 -8 3 -39 -10 -69 -30 -30 -20 -97 -53 -148 -73 -52
-21 -95 -41 -97 -45 -2 -4 -9 -5 -17 -2 -17 7 -29 -12 -14 -22 13 -8 -7 -24
-30 -24 -11 0 -11 3 0 16 12 15 10 15 -21 1 -125 -54 -342 -153 -380 -173 -45
-23 -120 -54 -195 -79 -26 -9 -77 -13 -145 -11 -58 2 -99 1 -92 -1 24 -9 12
-23 -19 -23 -24 0 -30 4 -25 15 3 8 1 15 -3 15 -5 0 -11 -6 -14 -12 -3 -10 -9
-8 -24 5 -11 9 -29 17 -41 17 -12 0 -22 5 -22 10 0 18 43 27 103 22 55 -4 57
-4 57 20 0 13 11 35 25 48 45 42 155 10 155 -46 0 -21 -34 -17 -55 6 -21 23
-31 24 -68 8 -34 -16 -34 -26 1 -39 30 -12 152 -3 152 11 0 5 17 12 38 16 20
3 141 54 267 113 127 59 256 118 287 132 31 13 62 33 68 45 12 22 51 39 115
49 22 3 72 23 110 45 82 45 97 47 136 19z m2445 -13 c54 -25 98 -73 109 -118
16 -61 -55 -210 -117 -248 -80 -49 -142 -44 -209 17 -100 91 -109 220 -22 305
73 70 152 85 239 44z m-2318 -161 c73 -36 135 -65 139 -65 4 0 50 -22 102 -49
53 -27 121 -59 151 -72 30 -13 96 -46 145 -73 50 -27 99 -49 110 -48 13 1 16
-1 7 -7 -16 -9 20 -45 62 -61 42 -16 41 -8 -7 29 -48 38 -36 36 82 -12 125
-51 205 -44 303 25 23 16 35 2 20 -22 -11 -19 -9 -20 33 -20 59 0 58 -17 -2
-25 -27 -3 -91 -13 -143 -20 -56 -9 -123 -12 -165 -9 -38 4 -79 6 -90 6 -11 0
-438 -3 -950 -6 -1170 -7 -1076 -6 -1043 -16 15 -4 267 -8 560 -9 293 -1 634
-2 758 -2 124 -1 447 0 717 1 271 1 502 -1 513 -5 28 -9 25 -22 -10 -40 -28
-14 -176 -16 -1436 -14 -1365 1 -1464 3 -1464 30 0 23 38 30 161 30 165 1 209
12 74 19 -96 5 -100 6 -103 29 -6 36 11 46 49 27 42 -21 115 -21 123 -1 3 8
15 15 26 15 11 0 20 -7 20 -15 0 -19 4 -19 94 0 41 9 118 35 173 59 95 42 144
66 563 268 255 123 241 117 271 117 14 1 85 -28 157 -64z m-2604 -114 c104
-22 190 -42 193 -44 8 -9 -27 -28 -62 -34 -34 -6 -65 -1 -212 33 -85 19 -88
19 -65 -18 11 -18 39 -70 62 -115 22 -46 45 -83 50 -83 24 0 5 -31 -59 -94
l-68 -68 -94 79 c-52 43 -111 92 -132 107 -40 31 -42 42 -11 63 18 12 28 7
100 -48 43 -33 95 -76 115 -96 41 -39 63 -36 88 9 11 22 5 39 -63 181 -42 87
-76 162 -76 168 0 7 10 9 23 6 12 -3 107 -23 211 -46z m1906 -41 c-22 -17 -70
-37 -57 -24 7 7 71 43 77 43 3 0 -6 -8 -20 -19z m1085 10 c3 -5 2 -10 -4 -10
-5 0 -13 5 -16 10 -3 6 -2 10 4 10 5 0 13 -4 16 -10z m50 -20 c13 -6 15 -9 5
-9 -8 0 -22 4 -30 9 -18 12 -2 12 25 0z m59 -25 c11 -8 15 -15 10 -15 -6 0
-19 7 -30 15 -10 8 -14 14 -9 14 6 0 19 -6 29 -14z m-1574 -115 c0 -5 -7 -10
-15 -10 -8 0 -15 5 -15 10 0 6 7 10 15 10 8 0 15 -4 15 -10z m3970 -41 c0 -41
-51 -192 -97 -286 -84 -172 -195 -218 -303 -126 -50 43 -90 121 -90 178 0 23
-5 46 -11 52 -16 16 -4 43 19 43 14 0 20 -13 29 -65 13 -77 58 -154 108 -185
30 -18 35 -19 66 -6 43 18 93 70 86 89 -3 9 1 17 12 20 18 4 48 60 88 166 l24
64 -37 -6 c-43 -7 -40 -3 36 57 56 44 70 45 70 5z m-4230 -23 c0 -2 -7 -6 -15
-10 -8 -3 -15 -1 -15 4 0 6 7 10 15 10 8 0 15 -2 15 -4z m420 -196 c0 -5 -5
-10 -11 -10 -5 0 -7 5 -4 10 3 6 8 10 11 10 2 0 4 -4 4 -10z m406 -12 c4 -6 7
-27 6 -46 -1 -20 3 -41 9 -48 8 -10 116 -13 485 -13 l474 -1 -2 32 c-1 18 3
33 10 36 6 2 12 10 12 18 0 16 5 17 47 8 26 -5 29 -9 25 -35 -4 -30 -20 -37
-40 -17 -9 9 -13 7 -18 -6 -4 -9 -4 -19 -1 -22 2 -3 158 -6 345 -8 l339 -3 37
-28 c20 -15 36 -31 36 -35 0 -4 -37 -10 -82 -13 -106 -9 -2748 -9 -2748 -1 0
9 60 77 82 92 12 9 23 10 35 3 10 -5 211 -12 448 -15 332 -4 436 -3 454 7 33
16 37 35 9 39 -34 4 -39 55 -6 61 13 2 26 5 30 6 4 0 10 -4 14 -11z m-172 -13
c3 -8 12 -12 20 -9 8 3 17 1 21 -5 3 -6 -1 -11 -9 -11 -10 0 -13 -6 -9 -16 3
-9 0 -20 -8 -25 -21 -13 -29 -11 -29 9 0 10 -5 23 -11 29 -13 13 -5 43 10 43
5 0 11 -7 15 -15z m-799 -5 c5 -8 11 -8 19 -1 7 6 16 8 19 4 4 -3 26 -6 49 -6
24 0 51 -3 60 -8 10 -6 18 -5 20 2 2 7 18 7 51 -2 36 -9 51 -9 60 0 17 17 37
13 37 -9 0 -17 -7 -20 -47 -22 -102 -4 -269 -4 -290 0 -25 5 -30 21 -11 40 15
15 25 15 33 2z m1826 -3 c-1 -4 -1 -18 -1 -32 0 -32 -34 -35 -50 -4 -8 14 -19
19 -37 17 -16 -2 -28 3 -31 11 -4 11 3 13 29 9 19 -3 43 -2 54 3 22 8 37 7 36
-4z m-1444 -6 c10 9 13 8 13 -1 0 -12 24 -10 66 7 12 4 15 3 10 -5 -8 -13 6
-17 17 -5 12 11 66 13 72 3 4 -6 13 -7 23 -1 9 4 49 7 87 6 88 -3 87 -3 80
-15 -3 -5 -34 -10 -68 -9 -98 0 -298 -9 -303 -14 -7 -6 -54 4 -54 12 0 16 24
31 34 21 6 -6 14 -6 23 1z m791 -5 c37 -1 43 -21 10 -29 -29 -6 -167 -1 -174
6 -14 14 10 29 37 23 15 -3 31 -2 33 3 3 5 18 6 33 3 16 -2 43 -5 61 -6z m502
-2 c0 -18 -12 -24 -26 -13 -12 10 -63 7 -82 -5 -12 -7 -42 3 -42 13 0 4 16 8
36 9 20 1 39 4 41 6 9 9 73 1 73 -10z m990 -15 c-16 -10 -271 -9 -330 2 -19 3
39 7 130 8 91 1 172 6 180 11 21 13 40 -7 20 -21z m-4260 -13 l175 -22 3 -28
3 -27 -93 6 c-51 4 -142 13 -203 21 -141 18 -145 18 -145 -6 0 -10 39 -95 86
-187 96 -186 101 -209 64 -304 -20 -54 -60 -119 -73 -119 -4 0 -78 44 -165 97
-144 89 -211 133 -284 186 -15 12 -31 17 -35 14 -7 -8 27 -121 58 -195 17 -39
22 -43 43 -38 33 8 42 -9 21 -40 -9 -15 -13 -33 -10 -45 8 -26 -3 -75 -14 -63
-27 29 -168 385 -178 450 -9 58 18 48 199 -70 186 -122 344 -216 365 -216 15
0 43 92 46 147 1 31 -12 62 -60 148 -34 61 -76 145 -94 188 -26 64 -36 78 -51
74 -22 -6 -23 11 -2 41 15 21 20 22 92 16 42 -4 156 -16 252 -28z m3030 25 c0
-19 -27 -28 -75 -25 -27 1 -67 3 -87 3 -21 1 -38 5 -38 9 0 5 39 9 86 10 48 1
89 4 92 7 8 8 22 6 22 -4z m45 -1 c3 -5 1 -10 -4 -10 -6 0 -11 5 -11 10 0 6 2
10 4 10 3 0 8 -4 11 -10z m643 3 c-10 -2 -26 -2 -35 0 -10 3 -2 5 17 5 19 0
27 -2 18 -5z m69 1 c-3 -3 -12 -4 -19 -1 -8 3 -5 6 6 6 11 1 17 -2 13 -5z
m-1427 -38 c0 -2 -7 -6 -15 -10 -8 -3 -15 -1 -15 4 0 6 7 10 15 10 8 0 15 -2
15 -4z m3777 -123 c35 -93 9 -205 -64 -279 -76 -75 -179 -76 -251 -1 -44 45
-105 169 -89 179 22 15 39 3 56 -37 26 -66 61 -114 94 -131 39 -21 101 -13
131 15 38 36 70 111 71 166 0 47 -2 50 -27 53 -32 4 -37 18 -9 27 11 3 26 17
35 30 9 14 20 25 25 25 5 0 18 -21 28 -47z m-3758 -60 c432 -2 1011 -4 1286
-5 275 -1 473 -4 440 -7 -108 -11 -2507 -11 -2527 0 -10 5 -18 17 -18 26 0 13
2 14 17 2 13 -12 153 -14 802 -16z m1849 -10 c-10 -2 -26 -2 -35 0 -10 3 -2 5
17 5 19 0 27 -2 18 -5z m-1948 -103 c-6 -11 -18 -24 -28 -29 -14 -8 -10 -10
21 -11 26 0 37 4 37 15 0 8 5 15 11 15 6 0 9 -7 5 -15 -4 -11 2 -15 24 -15 17
0 30 5 30 10 0 6 10 10 23 10 18 0 19 2 7 10 -23 15 -48 12 -52 -7 -2 -14 -6
-12 -20 9 l-17 25 63 2 c49 1 67 -3 77 -16 12 -15 12 -16 -3 -10 -10 3 -18 2
-18 -3 0 -6 17 -9 38 -9 20 1 29 3 20 6 -10 2 -18 11 -18 19 0 16 10 16 385
13 301 -3 276 1 251 -31 -15 -21 -66 -24 -84 -6 -8 8 -15 9 -22 2 -7 -7 -29
-8 -58 -3 -28 4 -52 3 -59 -3 -9 -7 -25 -5 -52 5 -34 14 -40 14 -45 1 -4 -10
-16 -13 -43 -9 -64 9 -154 12 -158 4 -3 -4 7 -9 21 -12 49 -9 409 -12 904 -6
96 1 299 -1 451 -3 246 -4 280 -7 314 -24 21 -10 37 -23 37 -29 -1 -7 -365
-10 -1065 -11 -584 -1 -1204 -4 -1377 -7 -173 -4 -332 -4 -353 0 -50 8 -47 34
6 46 29 7 38 15 43 36 10 44 14 52 22 47 8 -5 230 -20 262 -17 8 0 80 2 160 4
80 1 150 5 155 8 6 4 27 6 48 6 20 0 40 3 43 6 13 13 24 -5 14 -23z m924 5 c7
-18 33 -20 38 -3 5 15 292 13 353 -2 6 -1 18 -2 28 -1 9 1 17 -3 17 -8 0 -14
-63 -14 -76 -1 -8 8 -15 6 -23 -4 -9 -10 -19 -13 -30 -7 -9 4 -46 5 -83 2 -38
-4 -77 -3 -88 1 -15 5 -19 4 -14 -4 5 -8 0 -9 -17 -5 -13 4 -55 7 -94 7 -53 1
-66 3 -52 11 9 6 15 14 12 20 -4 5 0 9 8 9 8 0 17 -7 21 -15z m653 -19 c3 -3
-35 -6 -85 -6 -51 0 -92 3 -92 8 0 9 168 8 177 -2z m111 -3 c-15 -2 -42 -2
-60 0 -18 2 -6 4 27 4 33 0 48 -2 33 -4z m2574 -100 c51 -37 91 -110 91 -167
0 -80 -67 -167 -161 -209 -60 -26 -142 -20 -177 13 -29 27 -60 102 -52 124 4
9 2 18 -3 21 -17 11 -11 24 20 40 52 27 56 22 56 -56 -1 -63 2 -73 23 -90 50
-41 125 -14 188 69 26 34 33 53 33 88 0 111 -82 170 -190 138 -84 -25 -97 10
-16 47 61 28 135 21 188 -18z m-4415 -67 c13 -13 -6 -15 -162 -16 -329 -3
-372 -1 -378 15 -5 12 30 14 264 11 148 -2 272 -6 276 -10z m1299 4 c35 0 64
-4 64 -8 0 -7 -71 -7 -195 -1 -30 2 -30 2 5 9 19 4 41 6 48 4 8 -2 43 -4 78
-4z m794 -6 c9 -9 0 -11 -32 -11 -24 0 -146 -1 -272 -2 -125 -1 -230 0 -233 3
-3 2 -2 10 2 16 10 16 519 10 535 -6z m-1757 -1 c-13 -2 -35 -2 -50 0 -16 2
-5 4 22 4 28 0 40 -2 28 -4z m70 0 c-7 -2 -19 -2 -25 0 -7 3 -2 5 12 5 14 0
19 -2 13 -5z m704 1 c-3 -3 -12 -4 -19 -1 -8 3 -5 6 6 6 11 1 17 -2 13 -5z
m-578 -43 c12 -8 12 -12 2 -25 -11 -13 -36 -16 -126 -16 -127 0 -145 4 -145
31 0 18 9 19 128 19 70 0 133 -4 141 -9z m828 -8 c2 -6 -1 -14 -7 -18 -12 -8
-280 -9 -287 -1 -3 3 -3 12 1 21 5 14 25 16 148 13 92 -3 143 -8 145 -15z
m-1367 -33 c0 -15 -5 -31 -12 -38 -8 -8 -8 -15 1 -26 9 -10 11 -143 11 -526
-1 -452 0 -514 14 -529 22 -24 20 -28 -14 -36 -54 -12 -33 -31 29 -26 15 1 22
-2 19 -11 -5 -14 -13 -15 -375 -22 -256 -5 -273 -4 -273 12 0 10 5 23 12 30 9
9 7 16 -7 32 -10 11 -15 23 -11 28 4 4 134 8 288 10 l280 3 -7 27 c-3 15 -9
39 -12 55 -3 15 -10 27 -15 27 -6 0 -8 -12 -5 -29 6 -27 4 -29 -31 -35 -20 -3
-108 -6 -195 -6 -153 0 -158 1 -152 20 3 11 2 28 -4 37 -9 15 -10 11 -11 -18
0 -31 -4 -38 -25 -43 -14 -4 -30 -4 -34 -1 -9 5 -15 1071 -6 1085 3 5 125 8
270 7 l265 -2 0 -25z m1893 20 c92 0 167 -4 167 -8 0 -11 -56 -43 -63 -36 -6
6 -134 6 -252 -1 -38 -3 -76 -5 -82 -5 -7 0 -13 -7 -13 -15 0 -10 10 -13 38
-10 20 2 52 4 70 4 19 1 31 5 27 11 -3 6 1 10 9 10 9 0 16 -6 16 -12 0 -14
136 -18 156 -5 25 15 47 -20 53 -84 l7 -64 8 43 c9 49 26 47 26 -4 0 -62 20
-36 21 29 l2 62 6 -60 c5 -39 2 -80 -7 -115 -14 -57 -18 -108 -20 -294 -1 -60
-4 -107 -6 -105 -3 2 -8 54 -12 114 -15 254 -19 251 -33 -30 -8 -148 -15 -295
-17 -325 -2 -30 -3 -64 -4 -75 -1 -19 -1 -19 -14 -2 -11 14 -15 15 -19 5 -4
-10 -8 -10 -16 1 -8 12 -11 9 -17 -13 -8 -34 -24 -17 -24 27 0 45 -20 31 -21
-15 0 -40 -1 -41 -11 -18 -10 22 -12 23 -16 6 -2 -11 3 -25 12 -31 20 -15 21
-36 1 -29 -10 4 -15 0 -15 -11 0 -13 6 -16 24 -11 16 4 26 1 30 -9 5 -13 -12
-15 -109 -15 l-115 0 -2 123 c-1 67 -2 256 -3 420 -3 488 -20 374 -31 -208 -4
-201 -10 -335 -16 -342 -8 -9 -7 -13 3 -13 8 0 111 -2 229 -5 213 -5 215 -5
240 -30 21 -22 23 -27 10 -35 -8 -5 -37 -10 -64 -10 -27 0 -46 -3 -42 -7 4 -4
25 -7 48 -8 24 0 43 -5 46 -13 3 -10 -54 -12 -279 -10 -215 2 -283 6 -287 16
-2 8 8 12 30 13 30 0 31 1 11 9 -13 5 -23 14 -23 19 0 20 13 41 25 41 7 0 16
7 19 16 3 9 6 265 6 569 l0 553 63 -4 c34 -2 137 -4 230 -4z m-1440 -119 l57
-1 0 -520 c0 -456 2 -520 15 -520 8 0 15 -5 15 -12 0 -6 7 -19 16 -29 15 -17
14 -18 -20 -24 -20 -4 -45 -5 -56 -2 -11 3 -23 1 -26 -4 -3 -5 13 -9 35 -9 44
0 71 -8 71 -21 0 -5 -57 -9 -126 -9 -87 0 -123 -3 -118 -11 3 -6 14 -9 24 -6
24 6 216 -12 246 -24 14 -5 23 -13 19 -18 -3 -5 0 -13 7 -18 36 -22 -221 -31
-328 -11 -49 9 -64 16 -68 31 -8 30 1 37 45 37 21 0 39 5 39 10 0 9 -14 14
-32 11 -5 0 -8 4 -8 9 0 6 19 10 43 10 23 0 52 3 64 6 40 11 14 24 -48 24 -64
0 -68 4 -44 50 13 25 14 70 10 297 -3 148 -2 376 2 508 l8 239 25 7 c14 3 36
5 50 4 14 -2 51 -3 83 -4z m867 -17 c13 -13 14 -81 12 -510 -3 -371 0 -504 9
-525 6 -17 10 -32 7 -34 -2 -3 -37 -6 -76 -7 -83 -2 -99 -18 -19 -19 28 0 61
-4 72 -8 32 -13 -40 -22 -160 -20 -96 1 -122 8 -95 24 6 3 10 18 10 32 0 14 8
32 18 39 16 11 17 50 20 521 2 279 5 513 7 519 5 17 175 6 195 -12z m3834
-257 c23 -59 24 -67 9 -67 -9 0 -13 3 -10 7 4 3 3 11 -2 17 -5 6 -14 30 -21
54 -6 24 -14 51 -17 60 -4 12 -3 14 5 7 6 -6 22 -40 36 -78z m37 -128 c3 -19
8 -40 12 -46 12 -20 25 -103 16 -103 -5 0 -10 6 -10 13 -2 20 -5 31 -12 47
-17 41 -33 130 -23 127 6 -2 13 -19 17 -38z m55 -207 c-9 -8 -26 10 -26 26 1
15 2 15 15 -2 8 -11 13 -21 11 -24z m63 -424 c1 -10 -3 -18 -9 -18 -5 0 -10
19 -9 43 1 36 2 38 9 17 4 -14 8 -33 9 -42z m-8999 32 c0 -5 -5 -10 -11 -10
-5 0 -7 5 -4 10 3 6 8 10 11 10 2 0 4 -4 4 -10z m-12 -102 c-1 -70 -2 -76 -8
-38 -6 39 -2 120 6 120 1 0 2 -37 2 -82z m9025 -96 c5 -42 4 -52 -6 -44 -8 7
-11 28 -9 57 5 57 8 55 15 -13z m-5368 23 c117 -5 158 -12 150 -25 -8 -13
-107 -19 -380 -24 -275 -6 -375 3 -375 33 0 10 2 20 4 22 6 6 451 1 601 -6z
m2129 5 c67 -8 97 -22 82 -37 -10 -11 -682 -10 -693 0 -4 5 3 17 16 28 21 18
42 19 275 19 138 -1 282 -5 320 -10z m-709 -14 c37 -16 47 -36 18 -36 -114 -2
-295 -27 -208 -30 17 0 37 -5 45 -10 10 -7 -7 -10 -58 -10 -46 0 -71 4 -67 10
3 6 -3 10 -13 10 -19 0 -32 24 -32 63 0 15 13 17 140 17 100 0 151 -4 175 -14z
m3954 -171 c1 -16 -1 -17 -9 -5 -5 8 -9 31 -9 50 l1 35 8 -30 c4 -16 8 -39 9
-50z m-3109 44 c0 -5 -8 -9 -18 -9 -33 0 -61 -29 -64 -67 -3 -40 -24 -56 -35
-26 -11 29 -23 33 -108 33 -130 0 -185 -26 -185 -88 0 -43 48 -77 160 -112 58
-17 117 -38 132 -46 42 -22 97 -73 115 -107 17 -34 27 -141 12 -132 -5 4 -9
-7 -9 -24 0 -16 -4 -32 -9 -35 -5 -4 -7 4 -4 16 4 18 1 17 -15 -8 -26 -40 -74
-77 -137 -104 -45 -20 -62 -21 -180 -17 -71 3 -144 8 -161 12 -23 4 -33 2 -37
-10 -4 -8 -13 -15 -21 -15 -12 0 -13 6 -5 32 5 18 9 50 9 71 l0 37 51 -26 c93
-47 239 -66 322 -43 21 6 56 26 77 45 64 58 75 130 31 193 -21 29 -122 85
-149 83 -24 -1 -102 19 -132 35 -14 7 -29 13 -35 13 -5 0 -30 17 -53 38 -37
31 -45 44 -49 82 -5 45 4 78 31 115 15 20 14 20 -162 17 -97 -2 -181 -8 -186
-13 -5 -5 -12 -28 -15 -51 -6 -46 -22 -54 -33 -16 -3 13 -6 17 -7 10 -1 -18
-26 -9 -26 9 0 7 -9 15 -20 17 -17 3 -18 1 -5 -8 12 -9 9 -10 -15 -6 -16 2
-47 7 -67 11 -81 13 -158 -33 -158 -95 0 -44 26 -61 186 -125 151 -60 227
-134 227 -221 0 -24 -5 -50 -11 -56 -9 -9 -12 -9 -12 3 0 7 -9 -5 -19 -27 -10
-23 -34 -52 -52 -66 -60 -44 -92 -51 -195 -45 -61 4 -93 3 -89 -3 9 -14 -10
-12 -48 4 -28 11 -36 11 -52 0 -27 -20 -36 -7 -20 29 7 18 16 40 19 51 5 14
12 17 29 11 101 -32 231 -44 279 -26 64 24 98 99 72 160 -18 42 -56 67 -157
101 -175 59 -247 120 -247 209 1 58 35 110 105 160 l49 36 529 2 c291 1 531 4
534 6 7 8 33 -3 33 -14z m-5110 -8 c0 -10 7 -21 15 -24 20 -8 185 -260 226
-346 19 -39 36 -71 39 -71 3 0 10 10 16 23 6 12 38 76 71 142 33 66 75 153 94
193 23 52 41 78 61 88 31 16 48 12 48 -12 0 -8 6 -14 14 -14 8 0 27 -5 42 -10
25 -10 25 -12 11 -28 -14 -15 -16 -56 -17 -287 0 -149 -1 -285 0 -303 0 -25 6
-35 25 -44 40 -18 31 -38 -17 -40 -82 -3 -118 -6 -133 -12 -29 -11 -17 34 13
47 15 6 30 16 34 22 16 21 4 515 -12 515 -4 0 -21 -33 -38 -72 -17 -40 -62
-140 -101 -221 -39 -81 -71 -152 -71 -156 0 -5 -7 -25 -16 -46 -13 -31 -18
-35 -28 -24 -6 8 -18 32 -25 54 -31 96 -203 425 -222 425 -6 0 -9 -86 -7 -241
3 -236 3 -241 26 -259 12 -10 22 -20 22 -23 0 -3 -23 -5 -50 -5 -28 -1 -53 -3
-58 -5 -4 -3 -18 -1 -31 5 l-25 9 32 29 32 29 0 301 c0 209 -4 306 -11 319
-10 14 -8 22 7 39 24 26 34 27 34 3z m2571 -2 c16 -25 5 -44 -29 -47 -18 -2
-30 -7 -27 -11 2 -5 -33 -11 -79 -13 -91 -6 -164 -33 -232 -84 -29 -22 -37
-25 -44 -14 -5 8 -7 17 -6 20 13 24 19 48 17 68 -2 16 3 22 17 22 10 0 40 14
66 31 54 36 121 49 234 45 50 -2 77 -7 83 -17z m1051 -22 l38 -16 -27 -52 -26
-53 -22 28 c-19 23 -31 28 -92 33 -43 3 -83 1 -106 -6 -49 -16 -87 -63 -87
-106 0 -54 47 -92 197 -158 165 -74 203 -111 203 -199 0 -42 -24 -93 -39 -84
-4 3 -15 -9 -25 -26 -37 -61 -171 -93 -291 -68 -68 15 -100 16 -131 5 -21 -6
-22 -4 -19 57 1 34 4 63 7 63 2 0 30 -18 62 -40 49 -34 66 -40 122 -43 54 -4
78 0 135 23 41 16 76 37 85 51 18 27 25 86 13 106 -5 7 -9 10 -9 7 0 -4 -15 8
-34 25 -18 18 -55 40 -82 50 -27 10 -92 41 -145 69 -110 57 -129 82 -129 168
0 88 56 157 144 180 49 13 216 4 258 -14z m-2462 -7 c11 -11 28 -20 38 -20 13
0 54 -54 132 -172 136 -208 148 -234 152 -322 3 -102 18 -90 19 16 0 51 2 149
5 218 4 105 2 127 -11 136 -14 10 -10 16 24 43 21 17 43 31 48 31 12 0 23
-222 23 -456 0 -146 -2 -173 -16 -178 -9 -3 -12 -2 -9 5 6 9 -42 3 -54 -7 -8
-7 -31 18 -31 33 0 32 -115 261 -185 369 -29 45 -55 90 -57 100 -1 9 -9 19
-15 21 -10 4 -12 -54 -10 -259 l2 -263 -47 0 c-50 0 -58 8 -34 34 11 12 15 77
21 288 6 268 4 313 -17 313 -13 0 -47 41 -48 57 0 11 27 32 43 33 4 0 16 -9
27 -20z m1745 -5 c0 -16 -6 -19 -27 -17 -26 3 -27 1 -22 -27 6 -29 4 -31 -21
-31 l-27 0 4 -197 c4 -184 6 -202 30 -260 14 -34 23 -64 21 -67 -8 -8 -43 7
-43 19 0 6 -9 20 -20 30 -38 34 -50 106 -50 290 l0 172 -31 42 c-17 24 -29 44
-27 46 4 4 180 23 198 21 8 -1 15 -10 15 -21z m4433 16 c40 -5 75 -11 78 -13
6 -7 -29 -138 -37 -138 -4 0 -10 11 -13 24 -16 63 -156 74 -208 16 -16 -17
-28 -39 -28 -49 0 -32 74 -86 173 -126 160 -66 216 -118 225 -206 8 -81 -55
-180 -116 -185 -15 -1 -40 -7 -55 -13 -34 -13 -127 -14 -182 -1 -27 6 -42 5
-46 -2 -4 -6 -20 -8 -38 -5 -23 5 -33 2 -40 -11 -7 -12 -13 -14 -20 -6 -8 7
-4 20 14 44 14 19 25 39 25 46 0 24 20 26 73 8 72 -25 203 -25 240 -1 64 42
80 107 40 166 -10 15 -16 30 -15 34 1 5 -3 7 -10 5 -7 -3 -33 7 -58 22 -83 48
-191 101 -199 96 -4 -3 -25 13 -47 35 -37 38 -39 43 -39 102 0 76 19 106 89
142 53 27 80 29 194 16z m-1004 -44 c-1 -17 -2 -45 -3 -62 l-2 -30 -16 23
c-14 20 -24 22 -103 22 -107 0 -115 -7 -106 -85 3 -30 9 -133 11 -228 7 -225
11 -254 37 -268 20 -11 20 -11 0 -25 -12 -8 -45 -13 -86 -13 -55 1 -66 4 -66
18 0 9 9 24 20 34 19 16 20 29 20 286 0 174 -4 272 -10 276 -6 4 -56 7 -112 7
-84 0 -104 -3 -114 -17 -7 -9 -21 -15 -31 -13 -23 4 -32 86 -11 99 7 5 139 9
293 9 l280 0 -1 -33z m-4374 8 c16 -20 6 -45 -19 -45 -18 0 -20 -8 -23 -92 -6
-174 -3 -483 5 -504 8 -19 4 -22 -43 -28 -64 -9 -76 -2 -50 31 19 24 20 40 20
309 0 246 -2 284 -15 284 -10 0 -15 10 -15 30 l0 30 64 0 c44 0 67 -5 76 -15z
m3445 0 c0 -5 4 -16 9 -24 5 -8 4 -16 -5 -22 -11 -7 -14 -60 -13 -284 1 -152
5 -279 8 -283 13 -12 160 -14 202 -3 27 7 45 20 58 41 10 17 20 29 23 27 2 -3
2 -30 -2 -61 l-7 -56 -92 0 c-50 0 -138 -1 -195 -2 -85 -1 -105 2 -112 15 -7
12 -3 19 18 29 l28 13 3 278 2 277 -25 10 c-32 12 -34 47 -2 53 37 8 102 3
102 -8z m-2340 -22 c4 -16 7 -129 6 -253 -1 -208 -3 -228 -23 -270 -39 -82
-93 -117 -188 -121 -54 -2 -78 2 -131 22 -22 9 -26 16 -26 50 0 44 7 47 47 19
43 -31 118 -43 165 -28 83 27 99 90 92 366 -3 130 -7 166 -20 180 -19 21 -12
33 28 49 43 16 42 16 50 -14z m-488 -49 c-6 -6 -37 7 -37 15 0 4 8 17 18 29
l17 21 3 -30 c2 -17 1 -33 -1 -35z m4183 31 c8 -10 9 -19 2 -27 -5 -8 -12
-106 -14 -228 -4 -198 -6 -218 -27 -259 -46 -89 -119 -122 -223 -103 -68 13
-77 17 -60 34 7 7 12 23 12 37 l0 25 28 -26 c38 -36 64 -41 111 -22 31 12 47
27 63 58 19 37 22 61 26 228 4 166 3 188 -12 194 -26 10 -19 29 24 68 45 40
52 42 70 21z m1460 0 c0 -8 -4 -15 -10 -15 -5 0 -10 7 -10 15 0 8 5 15 10 15
6 0 10 -7 10 -15z m0 -91 c0 -36 -4 -63 -8 -60 -5 3 -7 31 -6 63 3 66 2 63 9
63 3 0 5 -30 5 -66z m-5752 -49 c100 -30 142 -86 142 -192 0 -116 -66 -223
-164 -268 -53 -24 -196 -42 -196 -24 0 5 -6 8 -12 7 -7 -2 -12 2 -11 9 2 7 -4
10 -12 7 -18 -7 -71 48 -91 93 -53 123 37 308 177 361 65 25 99 27 167 7z
m2622 -388 c0 -2 -17 -19 -37 -38 l-38 -34 34 38 c33 34 41 42 41 34z m-4496
-457 c20 -44 52 -112 70 -152 19 -40 67 -145 106 -233 39 -88 85 -177 101
-198 30 -37 30 -39 15 -71 -9 -18 -22 -39 -31 -46 -12 -10 -16 -8 -25 15 -5
14 -10 33 -10 41 0 10 -12 14 -39 14 -47 0 -57 12 -41 49 10 24 8 37 -10 79
-33 76 -46 84 -137 85 -43 0 -102 -1 -131 -3 -60 -4 -79 -20 -102 -90 -12 -36
-12 -43 1 -50 15 -10 3 -29 -22 -34 -8 -2 -27 -8 -42 -14 -59 -25 -85 -9 -51
30 18 19 71 139 163 368 96 239 121 290 141 290 4 0 24 -36 44 -80z m-556 -15
c15 -33 53 -107 85 -165 51 -90 97 -195 97 -220 0 -4 -11 -10 -25 -12 -18 -4
-26 0 -31 14 -3 11 -27 47 -53 81 -25 34 -58 80 -71 102 l-25 40 -6 -75 c-4
-41 -7 -125 -8 -186 -1 -105 0 -112 22 -127 26 -18 15 -37 -13 -19 -15 9 -25
8 -47 -3 -37 -20 -72 -19 -95 2 -24 22 -23 37 3 30 14 -4 29 2 45 18 l24 24 0
253 c0 203 -3 258 -14 274 -19 27 -7 43 32 42 18 -1 35 2 39 6 4 4 9 1 11 -6
3 -7 16 -40 30 -73z m-808 37 c0 -15 -2 -15 -10 -2 -13 20 -13 33 0 25 6 -3
10 -14 10 -23z m2097 -8 l72 -7 -6 -46 c-3 -25 -9 -57 -13 -70 -6 -25 -6 -25
-19 6 -14 35 -42 43 -157 43 -82 0 -116 -19 -141 -78 -13 -32 -13 -37 4 -60
20 -26 42 -40 176 -104 98 -47 149 -94 168 -156 14 -47 -3 -92 -53 -138 l-32
-29 19 30 c18 29 18 30 -1 14 -10 -9 -41 -28 -69 -43 -58 -30 -133 -35 -208
-12 -26 8 -47 12 -47 9 0 -3 -7 0 -15 7 -20 17 -33 5 -41 -36 -3 -19 -11 -33
-18 -31 -18 6 -19 56 0 101 l18 42 60 -25 c85 -35 180 -40 234 -12 65 33 88
82 62 132 -9 15 -111 89 -124 89 -21 0 -161 77 -185 102 -65 67 -60 156 13
227 63 61 91 65 303 45z m2736 -5 c31 -8 37 -14 31 -27 -3 -9 -12 -39 -19 -67
l-13 -50 -13 33 c-7 17 -19 32 -25 32 -7 0 -14 7 -18 15 -3 8 -13 15 -23 14
-16 0 -16 -1 2 -9 19 -8 19 -9 -2 -9 -13 -1 -23 4 -23 10 0 10 -45 8 -108 -6
-66 -15 -96 -100 -49 -142 31 -29 69 -47 157 -73 152 -47 201 -87 208 -173 4
-54 -19 -124 -37 -112 -5 2 -16 -6 -25 -19 -8 -13 -40 -36 -71 -52 -53 -25
-62 -27 -150 -21 -71 4 -104 11 -133 27 -37 21 -41 21 -65 6 -30 -20 -41 -9
-27 28 5 14 7 39 4 55 -9 45 13 48 54 8 93 -91 254 -101 340 -22 32 29 36 38
35 76 -3 58 -28 78 -158 125 -227 82 -281 148 -226 271 20 44 48 67 109 89 41
16 176 12 245 -7z m3267 10 c65 -8 90 -7 107 2 18 10 26 10 35 1 9 -9 7 -13
-5 -18 -13 -5 -17 -19 -17 -59 0 -30 -4 -57 -10 -60 -5 -3 -10 3 -10 14 0 31
-37 49 -123 61 -92 13 -147 2 -189 -40 -37 -38 -38 -82 0 -116 35 -33 61 -46
147 -74 153 -49 218 -95 231 -165 9 -48 0 -74 -40 -127 -59 -77 -94 -93 -211
-93 -74 0 -108 4 -132 17 -33 17 -43 12 -21 -10 15 -15 3 -15 -39 0 -39 14
-40 24 -12 72 25 42 32 44 52 12 23 -34 76 -49 162 -44 78 4 109 18 147 69 31
41 24 107 -14 139 -38 32 -128 63 -144 49 -13 -11 -15 -9 -13 7 1 8 -23 24
-36 24 -5 0 -3 -5 5 -10 28 -18 -12 -11 -60 11 -36 16 -42 22 -30 30 12 9 10
10 -8 6 -17 -4 -30 4 -56 34 -98 115 -6 277 159 279 22 0 78 -5 125 -11z
m-5456 -10 c42 -7 62 -7 69 0 13 13 47 15 47 3 0 -5 -11 -19 -24 -31 -13 -13
-27 -39 -31 -59 l-7 -37 -20 28 c-18 25 -25 27 -89 27 -113 0 -171 -39 -155
-104 11 -43 47 -73 151 -125 145 -72 182 -118 164 -202 -12 -54 -44 -102 -78
-118 -14 -6 -37 -18 -51 -27 -20 -12 -48 -14 -132 -11 -63 2 -105 0 -101 -6 3
-5 -3 -7 -12 -5 -10 1 -19 10 -20 18 -2 8 -6 32 -10 53 -8 44 -1 46 51 15 26
-15 58 -23 114 -26 75 -4 77 -4 113 28 48 42 67 99 44 134 -26 40 -77 72 -151
96 -78 25 -139 74 -162 128 -19 47 -18 78 7 129 44 90 134 120 283 92z m581
-9 c111 -17 200 -80 251 -182 22 -43 26 -64 26 -138 0 -127 -35 -214 -112
-276 l-35 -28 31 35 c45 51 74 90 74 103 0 6 -9 -2 -19 -19 -44 -71 -136 -132
-213 -142 -24 -3 -46 -11 -50 -17 -6 -8 -10 -8 -15 0 -5 6 -22 11 -40 10 -17
-1 -29 1 -27 3 8 8 -78 41 -90 34 -6 -3 -8 -2 -3 2 4 5 -6 22 -22 39 l-29 31
9 130 c4 72 8 178 9 236 0 98 -2 107 -20 112 -11 3 -20 14 -20 25 0 38 11 41
190 50 19 1 66 -3 105 -8z m489 -5 c40 -17 46 -31 16 -40 -11 -3 -23 -17 -26
-29 -3 -13 -4 -115 -2 -227 3 -233 7 -244 87 -276 82 -32 190 8 227 84 16 32
19 67 22 233 l3 195 -32 18 c-35 19 -32 27 19 47 28 11 35 11 42 0 6 -9 20
-11 48 -7 35 6 40 4 45 -14 5 -17 -1 -24 -24 -32 l-29 -11 -1 -161 c-1 -211
-7 -252 -49 -314 -51 -75 -114 -106 -210 -106 -96 1 -164 32 -195 91 -18 35
-20 61 -23 267 -4 227 -4 228 -27 237 -12 5 -25 16 -28 24 -5 12 0 16 21 16
15 0 34 5 42 10 20 13 32 12 74 -5z m1826 -2 c5 -5 -25 -30 -42 -35 -5 -2 -9
-104 -8 -233 0 -220 -1 -232 -22 -275 -42 -84 -144 -115 -291 -91 -53 9 -71
23 -81 62 l-6 27 62 -25 c50 -20 73 -24 119 -20 77 7 128 32 145 73 15 36 17
198 5 374 l-6 95 -29 5 c-35 6 -43 22 -20 44 13 14 29 16 93 10 42 -4 78 -9
81 -11z m1637 -18 c66 -33 153 -119 184 -182 31 -65 32 -178 1 -246 -33 -75
-93 -139 -159 -173 -53 -27 -66 -29 -163 -29 -96 1 -110 3 -160 29 -68 35
-110 79 -145 150 -37 75 -39 193 -5 281 30 79 117 167 187 189 73 24 189 15
260 -19z m-1197 0 c0 -18 -5 -25 -20 -25 -19 0 -20 -7 -20 -260 0 -236 2 -260
18 -269 14 -9 15 -12 2 -20 -8 -5 -26 -7 -41 -4 -15 3 -36 0 -48 -6 -11 -7
-21 -8 -21 -3 0 6 -9 12 -20 15 -30 8 -24 27 9 27 18 0 31 6 35 17 4 9 6 121
6 249 -1 224 -2 234 -22 248 -33 23 -16 44 39 49 26 2 56 4 66 5 12 1 17 -5
17 -23z m442 15 c53 -15 143 -100 164 -156 20 -54 15 -191 -11 -266 -22 -64
-84 -131 -150 -163 -53 -26 -58 -27 -170 -20 -118 8 -142 15 -105 35 20 11 20
16 15 243 -4 128 -8 242 -11 254 -2 14 -16 25 -39 33 -55 18 -45 38 23 43 127
8 249 6 284 -3z m1210 -5 c16 -22 7 -35 -24 -35 l-31 0 6 -261 c4 -172 9 -265
17 -274 14 -17 -3 -55 -25 -55 -17 0 -20 -16 -5 -25 21 -13 9 -25 -26 -25 -24
0 -33 4 -28 12 8 13 6 592 -3 614 -3 8 -16 14 -30 14 -36 0 -26 33 12 41 45 9
129 6 137 -6z m-7623 -48 c1 -10 -3 -15 -9 -12 -5 3 -10 21 -9 38 0 27 2 29 9
12 5 -11 9 -28 9 -38z m16 -77 c6 -43 -11 -27 -20 20 -5 26 -4 32 4 24 7 -6
14 -26 16 -44z m15 -80 c0 -11 -2 -20 -4 -20 -2 0 -6 9 -9 20 -3 11 -1 20 4
20 5 0 9 -9 9 -20z m8850 -80 c0 -5 -2 -10 -4 -10 -3 0 -8 5 -11 10 -3 6 -1
10 4 10 6 0 11 -4 11 -10z m-8820 -33 c0 -18 -2 -19 -10 -7 -13 20 -13 43 0
35 6 -3 10 -16 10 -28z m34 -117 c-6 -5 -24 21 -24 34 0 6 6 1 14 -10 8 -10
12 -21 10 -24z m17 -57 c5 -14 8 -34 6 -42 -3 -13 -5 -12 -11 4 -4 11 -12 28
-17 37 -12 23 -11 28 1 28 6 0 15 -12 21 -27z m29 -105 c6 -24 17 -56 25 -73
8 -16 12 -31 10 -33 -8 -8 -25 10 -25 27 0 10 -3 21 -7 25 -12 11 -31 96 -22
96 5 0 13 -19 19 -42z m1040 17 c0 -8 -4 -15 -10 -15 -5 0 -10 7 -10 15 0 8 5
15 10 15 6 0 10 -7 10 -15z m6430 -81 c0 -16 -16 -19 -25 -4 -8 13 4 32 16 25
5 -4 9 -13 9 -21z m-5250 -25 c0 -5 -4 -9 -10 -9 -5 0 -10 7 -10 16 0 8 5 12
10 9 6 -3 10 -10 10 -16z m-2154 -99 c15 -39 24 -73 21 -77 -7 -7 -35 54 -40
87 -2 11 -9 26 -15 32 -14 14 -16 28 -3 28 5 0 22 -32 37 -70z m5827 12 c15
-10 34 -27 42 -38 16 -21 20 -60 7 -66 -5 -1 -5 -14 -1 -28 l7 -25 1 24 c1 13
3 22 6 19 8 -7 -15 -190 -26 -208 -6 -11 -9 -5 -10 20 -1 19 -3 27 -6 18 -2
-10 -9 -18 -14 -18 -5 0 -9 -9 -9 -20 0 -11 7 -20 15 -20 18 0 19 -16 3 -34
-9 -10 -20 -11 -37 -5 -13 5 -26 7 -29 4 -3 -3 0 -5 8 -5 10 0 10 -3 0 -15 -7
-8 -18 -15 -25 -15 -16 0 -60 -39 -74 -67 -9 -19 -8 -21 12 -17 12 2 17 2 10
-2 -7 -3 -10 -11 -7 -19 3 -8 -15 -25 -50 -44 -30 -18 -70 -46 -88 -63 -18
-18 -44 -34 -58 -36 -13 -2 -31 -8 -38 -15 -12 -9 -11 -12 5 -18 17 -7 17 -8
0 -8 -10 -1 -20 6 -23 14 -4 8 -11 12 -16 8 -6 -3 -52 -7 -102 -9 -50 -2 -102
-9 -115 -16 -19 -10 -25 -10 -28 0 -3 6 -16 12 -29 12 -22 0 -29 10 -24 35 1
5 -2 7 -6 3 -4 -4 -20 2 -35 13 -23 16 -33 18 -49 9 -11 -6 -20 -16 -20 -23 0
-7 -14 -13 -31 -14 -27 -2 -30 0 -26 19 5 16 3 18 -6 9 -17 -17 -44 -13 -93
14 -51 28 -104 33 -104 10 0 -11 -10 -14 -40 -12 -36 3 -39 2 -25 -13 17 -19
20 -40 5 -40 -5 0 -13 6 -17 13 -4 7 -37 33 -73 58 -79 54 -111 89 -147 156
-15 29 -31 53 -35 53 -4 0 -17 11 -30 24 -35 35 -56 40 -50 10 3 -17 0 -24
-12 -24 -12 0 -16 -10 -16 -41 0 -24 -4 -38 -10 -34 -15 9 -12 93 5 159 50
191 220 301 390 251 32 -9 70 -24 84 -32 31 -19 131 -114 131 -124 0 -16 81
-128 110 -152 62 -52 166 -60 252 -19 58 28 162 135 237 242 95 137 125 157
226 159 33 1 60 -5 78 -17z m-3162 -38 c43 -13 66 -29 116 -81 35 -36 63 -69
63 -73 0 -5 -15 6 -32 24 -18 18 -43 36 -54 40 -22 7 -22 6 -8 -61 8 -37 17
-88 20 -113 3 -25 10 -55 16 -67 16 -33 7 -45 -24 -29 -30 16 -41 5 -31 -33 3
-12 -2 -27 -11 -36 -18 -18 -21 -45 -6 -45 18 0 10 -18 -11 -23 -12 -3 -28 2
-39 13 -10 10 -21 15 -25 12 -4 -4 -13 2 -21 12 -14 19 -14 19 -14 -4 l0 -23
-23 21 c-13 12 -30 22 -38 22 -10 -1 -8 -5 5 -15 16 -12 17 -18 7 -28 -10 -10
-15 -8 -25 6 -9 11 -20 15 -31 11 -14 -6 -16 -3 -11 13 5 17 0 21 -39 30 -25
6 -45 7 -45 3 0 -8 -37 -6 -46 2 -3 4 -12 4 -19 2 -45 -18 -47 156 -3 246 44
89 125 162 203 181 47 11 68 10 126 -7z m-2615 -101 c22 -53 44 -103 101 -223
28 -58 49 -107 47 -109 -5 -6 -44 30 -44 41 0 4 -13 37 -30 71 -16 35 -30 70
-30 78 0 8 -5 20 -12 27 -6 6 -17 26 -23 44 -7 18 -20 50 -29 71 -10 22 -12
37 -6 37 6 0 18 -17 26 -37z m1434 -14 c0 -6 -4 -7 -10 -4 -5 3 -10 11 -10 16
0 6 5 7 10 4 6 -3 10 -11 10 -16z m6982 -21 c-7 -7 -12 -8 -12 -2 0 14 12 26
19 19 2 -3 -1 -11 -7 -17z m-6949 -58 c3 -11 2 -20 -3 -20 -8 0 -20 24 -20 41
0 17 17 1 23 -21z m6918 -26 c-24 -53 -37 -56 -19 -3 11 33 30 60 36 54 2 -2
-6 -25 -17 -51z m-6891 -37 c0 -5 -4 -5 -10 -2 -5 3 -10 14 -10 23 0 15 2 15
10 2 5 -8 10 -19 10 -23z m25 -43 c16 -25 16 -25 -4 -14 -12 6 -21 17 -21 25
0 21 5 19 25 -11z m6755 -152 c-41 -81 -89 -168 -106 -193 -17 -26 -34 -53
-38 -60 -3 -8 -15 -27 -26 -44 -11 -16 -28 -46 -39 -65 -11 -19 -29 -46 -40
-60 -19 -23 -21 -23 -21 -5 0 11 11 33 25 49 14 16 25 32 25 36 0 4 32 61 71
126 40 66 94 162 122 214 27 52 55 102 62 110 7 8 15 24 19 34 3 10 10 16 13
12 4 -4 -26 -73 -67 -154z m-5132 -35 c143 -75 340 -123 547 -133 110 -6 147
-3 244 15 122 24 170 43 226 92 19 17 35 28 35 24 0 -20 -59 -78 -107 -105
-30 -17 -53 -33 -51 -36 10 -9 91 27 128 56 45 35 50 36 50 10 0 -10 9 -24 20
-30 13 -7 20 -20 19 -38 0 -24 -1 -25 -10 -7 -8 18 -8 18 -6 -5 2 -23 6 -25
45 -23 24 1 40 -2 37 -8 -4 -5 -10 -9 -15 -9 -5 0 -24 -13 -42 -30 -25 -23
-29 -30 -14 -30 10 0 48 14 86 30 38 17 72 30 76 30 4 0 -5 -14 -22 -31 -27
-30 -27 -31 -6 -26 12 3 22 2 22 -1 0 -4 9 -18 20 -32 l19 -25 16 23 c9 12 23
22 31 22 16 0 19 -16 4 -25 -15 -9 -12 -35 5 -35 9 0 12 6 9 15 -4 8 -1 15 5
15 6 0 11 -5 11 -10 0 -7 7 -7 21 0 11 7 23 10 25 7 9 -9 -7 -33 -28 -42 -28
-13 -59 -67 -44 -77 6 -4 7 -11 2 -15 -4 -4 -14 1 -22 11 -13 18 -14 18 -14 2
0 -14 -5 -17 -24 -12 -14 3 -28 2 -31 -4 -3 -5 0 -10 7 -10 8 0 14 -9 15 -21
2 -17 -1 -18 -13 -9 -11 10 -17 10 -29 0 -13 -11 -13 -14 2 -26 10 -7 13 -14
6 -14 -6 0 -15 5 -18 10 -10 17 -23 11 -29 -14 -7 -29 -31 -40 -56 -26 -11 6
-21 6 -24 1 -3 -5 -43 -12 -88 -16 -46 -4 -87 -10 -93 -14 -18 -12 -112 -13
-120 -1 -4 7 -11 8 -18 2 -18 -14 -97 -24 -97 -12 0 5 -27 9 -62 9 -71 -1
-226 15 -235 25 -9 8 -33 -14 -33 -30 0 -8 10 -14 23 -14 12 0 30 -7 40 -15
18 -13 16 -14 -15 -17 -32 -3 -76 6 -110 23 -10 5 -20 5 -23 -1 -6 -9 -13 -7
-63 19 -13 6 -27 9 -32 6 -5 -3 -23 4 -40 16 -16 12 -40 24 -52 25 -58 6 -94
21 -103 42 -5 12 -13 22 -18 22 -5 0 -23 16 -41 35 -19 19 -39 35 -45 35 -9 0
-10 10 -6 30 6 26 4 30 -14 30 -11 0 -23 5 -26 10 -3 6 -17 10 -30 10 -28 0
-42 17 -27 32 12 12 5 36 -20 63 -10 11 -21 30 -24 42 -4 13 -14 23 -23 23
-10 0 -16 8 -16 24 0 13 3 22 8 19 15 -9 6 23 -13 47 l-20 25 0 -22 c0 -13 -4
-23 -10 -23 -5 0 -10 6 -10 14 0 8 -3 22 -7 32 -5 13 -3 16 10 11 9 -3 17 -2
17 3 0 6 -5 10 -11 10 -8 0 -10 15 -7 44 5 38 3 43 -11 38 -14 -5 -14 -4 1 11
23 23 43 21 56 -5 7 -15 11 -18 11 -7 1 8 -4 20 -10 26 -7 7 -9 23 -4 40 l7
28 20 -28 c11 -15 26 -27 33 -27 19 0 27 28 14 52 -6 11 23 -9 65 -45 42 -35
107 -81 144 -100z m-1582 116 c43 -71 141 -221 164 -253 102 -137 135 -177
229 -273 165 -169 304 -282 491 -399 41 -27 82 -52 90 -58 70 -48 409 -210
439 -210 6 0 11 -4 11 -9 0 -5 15 -11 33 -14 29 -4 61 -14 122 -38 46 -18 193
-59 211 -59 34 0 64 -12 57 -23 -4 -6 0 -8 10 -4 9 3 49 -1 89 -9 40 -9 90
-18 111 -21 20 -3 37 -9 37 -13 0 -10 -83 0 -91 12 -3 4 -16 7 -30 6 -41 -3
-139 13 -139 22 0 5 -7 7 -15 4 -8 -3 -38 1 -67 10 -29 8 -96 27 -148 40 -143
38 -350 123 -527 217 -212 112 -534 338 -640 450 -17 19 -54 57 -81 86 -28 28
-74 80 -104 115 -57 67 -228 319 -228 335 0 6 -8 21 -18 34 -25 34 -44 79 -32
79 5 0 17 -12 26 -27z m2830 -29 c19 -45 5 -67 -20 -33 -18 26 -22 69 -5 69 5
0 17 -16 25 -36z m1364 27 c0 -5 -7 -12 -16 -15 -14 -5 -15 -4 -4 9 14 17 20
19 20 6z m-3010 -37 c14 -35 13 -37 -11 -31 -15 4 -19 2 -15 -8 6 -16 -19 -40
-28 -27 -3 5 1 18 9 28 8 10 15 29 15 42 0 30 18 28 30 -4z m2970 -9 c0 -17
-16 -20 -25 -5 -4 6 -11 7 -17 4 -7 -4 -8 -2 -4 4 10 17 46 15 46 -3z m-5513
-104 c24 -41 50 -82 58 -91 8 -9 15 -20 15 -24 0 -10 161 -255 209 -318 53
-69 72 -97 71 -104 -1 -3 9 -15 23 -28 13 -12 21 -28 19 -35 -3 -9 0 -11 8 -6
9 5 11 4 6 -4 -8 -13 -26 -6 -26 10 0 6 -13 22 -30 36 -16 13 -30 31 -30 39 0
8 -4 14 -10 14 -5 0 -24 21 -42 48 -17 26 -38 53 -45 60 -7 7 -13 17 -13 22 0
5 -6 15 -12 22 -13 13 -88 124 -98 143 -13 26 -65 112 -75 125 -26 33 -94 170
-83 167 7 -1 32 -35 55 -76z m2137 63 c4 -9 4 -19 2 -21 -8 -8 -26 8 -26 23 0
19 16 18 24 -2z m402 -48 c7 -28 -2 -49 -17 -41 -12 8 -12 65 1 65 5 0 12 -11
16 -24z m44 -27 c0 -11 -4 -17 -10 -14 -5 3 -10 13 -10 21 0 8 5 14 10 14 6 0
10 -9 10 -21z m-1402 -106 c-2 -32 0 -38 22 -43 18 -4 21 -8 12 -14 -10 -6 -9
-11 7 -23 18 -12 21 -25 21 -81 0 -37 -7 -116 -15 -177 -8 -60 -15 -124 -15
-141 0 -43 -24 -63 -41 -33 -8 16 -9 63 -4 170 7 142 -7 289 -26 289 -4 0 -35
-51 -68 -112 -71 -132 -88 -156 -100 -142 -6 5 6 42 29 94 21 46 37 86 35 88
-4 5 -50 -22 -100 -58 -30 -21 -43 -26 -53 -18 -7 6 -11 15 -10 20 5 14 281
217 296 217 10 1 13 -10 10 -36z m3665 15 c30 -15 34 -23 12 -32 -21 -8 -61 9
-68 28 -8 20 18 21 56 4z m427 -8 c0 -5 -5 -10 -11 -10 -5 0 -7 5 -4 10 3 6 8
10 11 10 2 0 4 -4 4 -10z m-755 -50 c-5 -8 -11 -8 -17 -2 -6 6 -7 16 -3 22 5
8 11 8 17 2 6 -6 7 -16 3 -22z m-1845 -26 c0 -8 -4 -12 -10 -9 -5 3 -10 10
-10 16 0 5 5 9 10 9 6 0 10 -7 10 -16z m48 -62 c2 -7 -3 -12 -12 -12 -9 0 -16
7 -16 16 0 17 22 14 28 -4z m4042 -68 c0 -3 -7 -12 -15 -20 -23 -23 -19 -28
28 -42 24 -8 70 -29 101 -48 31 -18 69 -37 84 -40 60 -15 69 -54 26 -116 -44
-63 -90 -91 -155 -96 -54 -4 -58 -2 -99 34 -103 93 -119 222 -37 312 18 19 67
32 67 16z m1032 -79 c-9 -14 -18 -26 -48 -60 -32 -38 -25 -9 14 50 16 25 30
38 34 32 4 -6 4 -16 0 -22z m-1552 -15 c0 -5 -2 -10 -4 -10 -3 0 -8 5 -11 10
-3 6 -1 10 4 10 6 0 11 -4 11 -10z m-90 -91 c-105 -95 -295 -239 -314 -239
-15 0 -3 29 14 35 11 3 33 18 48 33 51 48 121 94 132 87 5 -3 10 0 10 8 0 8
15 24 33 36 17 11 41 26 52 33 11 7 26 21 33 31 7 9 19 17 25 17 7 0 -8 -18
-33 -41z m1534 -41 c-15 -24 -35 -51 -45 -60 -9 -10 -30 -33 -44 -53 -15 -19
-31 -33 -35 -30 -4 3 -11 -6 -14 -19 -3 -13 -25 -42 -48 -65 -24 -22 -53 -51
-66 -62 -12 -12 -20 -25 -17 -27 8 -8 -26 -42 -42 -42 -8 0 -12 -4 -8 -10 6
-10 -188 -209 -274 -280 -30 -25 -77 -66 -105 -91 -28 -26 -73 -64 -101 -85
-27 -20 -68 -52 -90 -69 -68 -55 -335 -229 -456 -298 -133 -75 -287 -153 -408
-207 -47 -20 -106 -47 -131 -58 -72 -33 -183 -76 -340 -132 -205 -73 -547
-151 -765 -175 -16 -2 -66 -8 -110 -14 -208 -27 -281 -31 -567 -31 -168 0
-328 2 -355 5 -26 2 -118 12 -203 20 -161 17 -335 44 -455 71 -291 66 -463
114 -575 162 -25 10 -61 19 -80 20 -22 0 -41 8 -52 21 -9 12 -22 21 -30 21 -8
0 -18 4 -23 9 -6 5 -20 12 -32 15 -19 6 -22 3 -25 -26 -2 -25 -8 -34 -25 -36
-21 -3 -23 1 -23 40 0 48 -5 57 -37 75 -22 12 -22 11 -25 -50 -3 -56 -5 -62
-25 -65 -16 -2 -23 2 -23 14 0 16 -1 16 -18 1 -21 -19 -83 -22 -113 -7 -48 26
-64 119 -29 176 l21 33 -23 12 c-204 107 -397 226 -548 338 -19 14 -39 29 -45
33 -5 4 -23 18 -40 31 -16 13 -40 29 -53 36 -12 7 -20 16 -17 22 4 5 1 9 -5 9
-16 0 -126 86 -145 113 -8 12 -17 20 -18 17 -7 -11 -89 62 -242 215 -88 88
-169 172 -180 185 -11 14 -26 33 -33 42 -8 10 -11 22 -7 28 4 7 13 2 25 -12
43 -54 293 -303 385 -384 129 -113 113 -101 235 -194 58 -44 116 -90 128 -100
13 -11 26 -20 28 -20 5 0 123 -84 144 -102 8 -7 26 -19 40 -25 14 -7 57 -33
95 -58 39 -24 81 -50 95 -57 14 -7 27 -15 30 -18 17 -19 194 -100 217 -100 16
0 39 -7 51 -16 20 -14 22 -14 22 1 0 11 7 15 23 13 17 -2 23 -10 25 -39 2 -27
9 -39 27 -47 26 -12 35 -7 35 20 0 11 -7 18 -20 18 -15 0 -20 7 -20 25 0 18 5
25 20 25 16 0 20 7 20 30 0 39 34 63 79 54 25 -5 31 -11 29 -28 -2 -16 -9 -20
-30 -18 -22 3 -28 -1 -28 -16 0 -15 8 -21 32 -24 48 -7 68 1 68 28 0 19 5 24
25 24 20 0 25 -5 25 -25 0 -21 5 -25 30 -25 25 0 30 -4 30 -25 0 -21 -5 -25
-30 -25 l-31 0 3 -67 c3 -66 4 -68 28 -65 18 1 28 -5 35 -19 7 -15 34 -30 90
-49 122 -42 205 -66 270 -80 33 -7 69 -16 80 -20 30 -12 260 -60 288 -60 14 0
37 -4 51 -9 13 -6 73 -15 133 -21 59 -6 144 -15 188 -20 199 -23 491 -31 750
-20 143 6 269 14 280 19 11 5 72 14 136 20 162 17 405 69 624 134 126 38 344
113 407 141 21 9 44 16 53 16 8 0 15 4 15 9 0 5 10 13 23 16 23 7 72 29 164
72 29 14 55 24 59 23 4 -1 10 2 13 7 3 4 47 28 96 52 100 50 293 157 352 196
21 14 45 30 53 35 97 64 222 151 251 173 20 15 39 27 44 27 4 0 15 8 24 18 9
9 36 33 61 52 100 77 500 451 500 469 0 3 21 28 46 56 25 27 80 91 122 142 42
51 80 93 85 93 4 0 5 5 2 10 -3 6 -2 10 3 10 5 0 15 12 22 28 7 15 15 22 17
15 2 -6 -8 -31 -23 -55z m-6199 -4 c-1 -23 -112 -314 -126 -328 -6 -6 -13 -6
-19 0 -10 10 15 119 46 198 8 21 13 41 10 43 -3 3 -31 -17 -63 -44 -86 -73
-108 -86 -123 -68 -6 8 -9 19 -5 25 4 6 56 51 117 100 88 72 115 90 136 87 15
-2 27 -8 27 -13z m1965 -59 c8 -9 8 -15 2 -15 -18 0 -42 12 -42 21 0 14 26 10
40 -6z m90 -25 c0 -5 -4 -10 -10 -10 -5 0 -10 5 -10 10 0 6 5 10 10 10 6 0 10
-4 10 -10z m-3086 -47 c10 -25 3 -23 -17 3 -13 18 -14 22 -3 18 8 -3 17 -13
20 -21z m3143 21 c-3 -3 -12 -4 -19 -1 -8 3 -5 6 6 6 11 1 17 -2 13 -5z m3081
-10 c80 -20 95 -26 90 -39 -4 -12 -127 -13 -180 -2 -49 10 -50 -5 -4 -64 49
-62 57 -88 40 -127 -19 -47 -97 -76 -149 -56 -18 7 -45 55 -45 80 0 15 5 13
28 -9 15 -15 38 -27 49 -27 30 0 55 28 47 52 -12 39 -56 128 -63 128 -17 0
-49 -32 -61 -60 -15 -37 -30 -39 -30 -5 0 40 25 89 55 109 59 39 122 45 223
20z m-6172 -59 c11 -27 -2 -37 -14 -11 -7 16 -8 26 -1 26 5 0 12 -7 15 -15z
m5314 -22 c0 -7 -50 -41 -75 -52 -5 -2 4 10 20 27 28 30 55 41 55 25z m-4033
-90 c23 -26 45 -60 48 -75 14 -61 -59 -218 -109 -238 -34 -13 -83 3 -146 47
-78 55 -81 63 -34 106 21 19 71 74 109 121 39 47 74 86 79 86 6 0 29 -21 53
-47z m3913 13 c0 -3 -4 -8 -10 -11 -5 -3 -10 -1 -10 4 0 6 5 11 10 11 6 0 10
-2 10 -4z m645 -31 c0 -12 -6 -19 -14 -17 -28 6 -82 -21 -108 -54 -38 -51 -38
-117 0 -150 60 -51 146 -21 168 59 16 55 25 65 44 46 13 -13 13 -21 0 -66 -29
-98 -115 -143 -203 -107 -62 26 -92 71 -92 136 0 56 16 91 57 129 53 50 148
65 148 24z m-690 5 c-9 -15 -65 -42 -65 -32 0 5 15 16 33 25 39 19 40 19 32 7z
m-555 -250 c0 -5 -5 -10 -11 -10 -5 0 -7 5 -4 10 3 6 8 10 11 10 2 0 4 -4 4
-10z m-2965 -44 c17 -12 18 -18 8 -48 -21 -57 -73 -257 -73 -278 0 -13 14 -27
39 -40 39 -19 61 -40 43 -40 -20 0 -80 25 -125 53 -43 26 -47 31 -33 46 12 14
46 113 63 189 8 32 -2 28 -62 -25 -35 -31 -50 -50 -42 -55 6 -4 8 -10 5 -13
-4 -4 -13 -3 -20 1 -7 5 -29 9 -48 9 -19 0 -35 5 -35 11 0 10 241 201 256 203
3 1 14 -5 24 -13z m3868 -14 c23 -20 47 -65 47 -87 0 -8 14 -34 30 -57 17 -22
30 -49 30 -58 0 -63 -212 -196 -256 -159 -7 6 -12 15 -9 19 4 7 -109 184 -143
223 -14 16 -13 20 9 43 32 35 95 75 144 91 49 16 122 9 148 -15z m-3346 -253
c56 -15 60 -25 28 -72 -13 -18 -14 -18 -24 1 -12 22 -61 35 -97 26 -41 -10
-31 -48 31 -113 63 -66 71 -102 32 -147 -32 -37 -91 -36 -179 4 -74 33 -93 52
-54 52 14 0 26 4 26 8 0 5 25 -4 56 -20 62 -31 84 -34 102 -16 22 22 13 40
-48 97 -56 53 -60 59 -60 102 0 93 50 114 187 78z m2828 9 c18 -8 25 -19 25
-39 0 -28 -1 -28 -31 -15 -33 14 -92 7 -112 -13 -25 -25 5 -47 118 -87 84 -29
107 -67 71 -113 -20 -26 -130 -71 -173 -71 -37 0 -43 3 -49 25 -8 33 -2 38 28
25 18 -9 36 -9 65 -1 46 13 99 50 86 61 -4 4 -40 17 -79 29 -99 29 -156 93
-140 157 12 45 128 71 191 42z m-517 -151 c53 -114 107 -195 142 -215 17 -9
30 -20 30 -24 0 -9 -92 -28 -103 -21 -5 3 -6 11 -3 18 8 22 -23 55 -52 55 -39
0 -49 -10 -58 -55 -8 -44 -18 -55 -53 -55 -18 0 -22 4 -16 18 3 9 11 78 16
152 11 151 23 210 44 210 8 0 31 -37 53 -83z m-1892 47 c4 -17 1 -29 -10 -37
-10 -8 -23 -50 -36 -116 -11 -58 -19 -105 -17 -106 10 -8 75 -25 93 -25 26 0
36 -11 26 -28 -6 -8 -32 -7 -102 5 -52 9 -97 18 -99 20 -2 2 1 13 7 26 19 39
52 211 42 221 -16 16 -12 25 23 46 44 27 65 25 73 -6z m1441 -111 c139 -164
189 -216 219 -231 41 -19 31 -28 -45 -38 -51 -7 -53 -6 -47 14 4 11 2 23 -4
27 -6 4 -38 41 -72 83 l-60 76 4 -107 3 -107 -44 0 c-39 0 -42 2 -30 16 10 12
13 55 11 170 0 85 3 154 8 154 5 0 30 -26 57 -57z m-1060 -15 c17 -29 44 -79
60 -111 25 -52 29 -56 34 -35 4 13 7 53 8 89 1 71 7 79 57 79 24 0 24 -1 10
-29 -10 -18 -18 -79 -24 -165 -4 -74 -11 -139 -15 -142 -4 -4 -13 -1 -21 5
-16 13 -95 145 -117 194 -18 40 -29 33 -30 -20 0 -27 -4 -70 -7 -98 -6 -46 -9
-50 -32 -47 -33 5 -46 18 -33 34 6 7 14 56 17 108 12 175 15 190 40 190 16 0
31 -15 53 -52z m-1052 12 c3 -5 1 -10 -4 -10 -6 0 -11 5 -11 10 0 6 2 10 4 10
3 0 8 -4 11 -10z"/>
<path d="M5240 9105 c-7 -25 -17 -48 -21 -51 -5 -3 -9 -13 -9 -22 0 -14 8 -16
50 -14 34 3 49 8 46 15 -2 7 -13 36 -22 65 -10 28 -21 52 -25 52 -3 0 -12 -20
-19 -45z"/>
<path d="M6983 8548 c-62 -78 -133 -182 -133 -195 0 -17 112 -83 141 -83 42 0
51 28 57 175 6 176 0 186 -65 103z"/>
<path d="M7433 8190 c-83 -50 -85 -184 -4 -253 45 -37 98 -37 133 1 67 70 96
172 62 221 -35 50 -134 66 -191 31z"/>
<path d="M4924 8022 c-228 -115 -546 -268 -649 -312 -29 -12 -29 -13 -9 -22
28 -13 129 22 314 107 74 35 194 90 265 123 72 33 160 74 198 92 51 24 75 30
98 25 16 -4 116 -48 222 -99 106 -51 221 -107 257 -123 36 -17 99 -46 140 -66
41 -20 93 -38 115 -42 22 -3 51 -8 64 -11 42 -9 5 24 -43 38 -22 6 -52 19 -66
29 -40 27 -591 299 -607 299 -7 0 -13 -5 -13 -11 0 -5 -4 -8 -10 -4 -5 3 -7
12 -3 20 3 9 -1 15 -11 15 -9 0 -24 9 -33 20 -10 11 -22 20 -28 19 -5 0 -96
-44 -201 -97z m166 38 c0 -5 -5 -10 -11 -10 -5 0 -7 5 -4 10 3 6 8 10 11 10 2
0 4 -4 4 -10z"/>
<path d="M4990 7929 c-63 -28 -167 -76 -230 -106 -63 -31 -149 -69 -190 -85
-41 -16 -86 -34 -99 -41 -22 -11 -22 -12 -5 -15 10 -1 62 2 114 7 52 5 344 8
648 6 304 -2 550 0 547 4 -2 5 -26 14 -51 20 -58 15 -134 47 -256 107 -150 74
-330 154 -347 154 -9 -1 -68 -23 -131 -51z m150 -8 c0 -5 19 -20 43 -34 47
-28 87 -63 87 -77 0 -14 -49 -66 -50 -52 0 14 -36 17 -44 3 -3 -4 -45 -8 -92
-7 -77 1 -88 3 -94 21 -13 36 -3 42 53 33 100 -16 175 -19 183 -7 10 17 -39
57 -81 65 -21 4 -60 0 -95 -9 -33 -8 -60 -11 -60 -7 0 8 104 60 120 60 6 0 10
5 10 10 0 6 5 10 10 10 6 0 10 -4 10 -9z m-305 -148 c-7 -29 -23 -45 -37 -37
-10 7 19 64 33 64 7 0 9 -10 4 -27z m111 16 c9 -16 -21 -43 -41 -36 -13 5 -14
11 -5 27 12 22 35 26 46 9z m400 -21 c-3 -13 -6 -29 -6 -35 0 -7 -4 -13 -10
-13 -5 0 -10 16 -10 35 0 26 4 35 16 35 12 0 15 -6 10 -22z m141 -4 c6 -18
-24 -25 -55 -13 -25 11 -26 12 -7 20 26 10 57 7 62 -7z"/>
<path d="M4770 7140 c0 -5 5 -10 10 -10 6 0 10 5 10 10 0 6 -4 10 -10 10 -5 0
-10 -4 -10 -10z"/>
<path d="M4930 7140 c0 -6 7 -10 15 -10 8 0 15 2 15 4 0 2 -7 6 -15 10 -8 3
-15 1 -15 -4z"/>
<path d="M4737 7133 c-12 -11 -8 -23 8 -23 8 0 15 7 15 15 0 16 -12 20 -23 8z"/>
<path d="M4030 7110 c-22 -14 -11 -16 50 -9 32 3 42 6 23 7 -17 1 -37 4 -45 7
-7 3 -20 1 -28 -5z"/>
<path d="M4240 7110 c-12 -8 -9 -10 13 -10 15 0 27 5 27 10 0 13 -20 13 -40 0z"/>
<path d="M4365 7110 c-4 -6 3 -10 14 -10 25 0 27 6 6 13 -8 4 -17 2 -20 -3z"/>
<path d="M4602 7104 c11 -10 64 -13 79 -3 9 6 -2 9 -35 9 -27 0 -47 -3 -44 -6z"/>
<path d="M3858 6842 c-10 -2 -18 -7 -18 -12 0 -17 20 -21 40 -7 23 16 10 27
-22 19z"/>
<path d="M4080 6846 c-5 -4 -44 -8 -150 -17 -14 -1 18 -7 70 -13 60 -7 113 -8
143 -2 54 10 63 26 15 26 -18 0 -42 3 -53 6 -11 3 -23 3 -25 0z"/>
<path d="M4230 6841 c0 -5 6 -21 14 -36 14 -26 15 -26 25 -7 15 28 14 32 -6
33 -15 0 -15 2 2 9 18 8 17 9 -7 9 -16 1 -28 -3 -28 -8z"/>
<path d="M4086 5914 c-10 -25 -7 -82 4 -89 6 -4 10 15 10 49 0 58 -3 68 -14
40z"/>
<path d="M4241 5904 c0 -11 3 -14 6 -6 3 7 2 16 -1 19 -3 4 -6 -2 -5 -13z"/>
<path d="M4010 5851 c0 -6 5 -13 10 -16 6 -3 10 1 10 9 0 9 -4 16 -10 16 -5 0
-10 -4 -10 -9z"/>
<path d="M5976 6763 c-2 -10 -1 -36 4 -58 8 -39 8 -39 9 18 1 57 -3 72 -13 40z"/>
<path d="M6342 6615 c0 -16 2 -22 5 -12 2 9 2 23 0 30 -3 6 -5 -1 -5 -18z"/>
<path d="M6129 5915 c-7 -64 -7 -95 0 -95 12 0 19 77 9 93 -4 7 -8 8 -9 2z"/>
<path d="M6072 5845 c0 -16 2 -22 5 -12 2 9 2 23 0 30 -3 6 -5 -1 -5 -18z"/>
<path d="M4771 5818 c-1 -27 4 -48 9 -48 12 0 12 34 0 70 -7 20 -8 16 -9 -22z"/>
<path d="M5490 6158 c0 -49 9 -45 16 6 2 20 0 36 -6 36 -5 0 -10 -19 -10 -42z"/>
<path d="M5490 5947 c0 -91 -3 -172 -6 -181 -4 -11 -1 -16 10 -16 14 0 15 19
12 176 -2 96 -7 178 -10 181 -3 4 -6 -68 -6 -160z"/>
<path d="M5591 5864 c0 -11 3 -14 6 -6 3 7 2 16 -1 19 -3 4 -6 -2 -5 -13z"/>
<path d="M5593 5790 c0 -30 2 -43 4 -27 2 15 2 39 0 55 -2 15 -4 2 -4 -28z"/>
<path d="M5460 5670 c0 -5 7 -10 15 -10 8 0 15 5 15 10 0 6 -7 10 -15 10 -8 0
-15 -4 -15 -10z"/>
<path d="M5560 5420 c0 -11 7 -14 53 -24 22 -5 27 -3 27 14 0 17 -7 20 -40 20
-22 0 -40 -5 -40 -10z"/>
<path d="M5355 5309 c-4 -6 -5 -12 -2 -15 2 -3 7 2 10 11 7 17 1 20 -8 4z"/>
<path d="M6278 5123 c7 -3 16 -2 19 1 4 3 -2 6 -13 5 -11 0 -14 -3 -6 -6z"/>
<path d="M3737 5156 c-80 -29 -127 -102 -127 -196 0 -121 71 -190 183 -177 66
8 106 34 142 92 27 43 30 57 30 126 0 84 -17 122 -66 146 -41 20 -120 24 -162
9z"/>
<path d="M1915 4158 c-33 -77 -61 -144 -63 -148 -3 -7 248 -3 255 4 2 2 -18
50 -45 107 -27 57 -57 121 -65 142 -9 20 -17 37 -19 37 -2 0 -30 -64 -63 -142z
m75 58 c0 -2 -7 -9 -15 -16 -13 -11 -14 -10 -9 4 5 14 24 23 24 12z"/>
<path d="M2270 3733 c1 -18 18 -35 24 -24 4 6 4 16 1 21 -7 12 -25 13 -25 3z"/>
<path d="M3178 4323 c7 -3 16 -2 19 1 4 3 -2 6 -13 5 -11 0 -14 -3 -6 -6z"/>
<path d="M3138 4313 c7 -3 16 -2 19 1 4 3 -2 6 -13 5 -11 0 -14 -3 -6 -6z"/>
<path d="M3740 4311 l-25 -7 -3 -226 c-1 -135 2 -236 8 -252 13 -36 71 -59
131 -54 166 16 252 168 207 368 -29 126 -183 209 -318 171z"/>
<path d="M7590 4300 c-55 -19 -100 -58 -100 -86 0 -9 -5 -12 -12 -8 -8 5 -9 2
-5 -11 4 -9 2 -24 -5 -32 -7 -9 -14 -56 -16 -113 -4 -89 -2 -104 21 -153 74
-162 309 -183 438 -39 66 73 86 161 55 235 -18 45 -110 169 -137 185 -33 21
-110 42 -149 42 -19 -1 -60 -9 -90 -20z"/>
<path d="M6899 4303 c-3 -32 2 -487 6 -493 10 -17 87 -22 132 -10 85 24 142
111 151 231 9 123 -38 222 -123 260 -40 19 -164 27 -166 12z"/>
<path d="M6721 3513 c7 -12 15 -20 18 -17 3 2 -3 12 -13 22 -17 16 -18 16 -5
-5z"/>
<path d="M5588 3483 c7 -3 16 -2 19 1 4 3 -2 6 -13 5 -11 0 -14 -3 -6 -6z"/>
<path d="M5641 3456 c2 -10 19 -24 37 -32 44 -18 39 3 -7 30 -31 18 -33 18
-30 2z"/>
<path d="M5430 3063 c0 -11 50 -57 50 -46 0 14 -30 53 -41 53 -5 0 -9 -3 -9
-7z"/>
<path d="M5525 2997 c8 -37 16 -47 22 -29 3 6 9 10 14 6 11 -6 12 16 1 32 -4
6 -15 14 -25 17 -16 6 -18 3 -12 -26z"/>
<path d="M3602 3260 c-14 -39 -8 -50 15 -27 13 12 14 21 6 39 -9 21 -10 21
-21 -12z"/>
<path d="M3775 3081 c-6 -11 9 -23 19 -14 9 9 7 23 -3 23 -6 0 -12 -4 -16 -9z"/>
<path d="M4016 2657 c48 -57 106 -107 124 -107 11 0 20 2 20 4 0 9 -68 76 -78
76 -6 0 -17 8 -24 18 -7 10 -24 21 -36 25 -24 6 -24 5 -6 -16z"/>
<path d="M5270 2579 c0 -5 5 -7 10 -4 6 3 10 8 10 11 0 2 -4 4 -10 4 -5 0 -10
-5 -10 -11z"/>
<path d="M4205 2550 c3 -5 11 -10 16 -10 6 0 7 5 4 10 -3 6 -11 10 -16 10 -6
0 -7 -4 -4 -10z"/>
<path d="M5210 2539 c0 -5 5 -7 10 -4 6 3 10 8 10 11 0 2 -4 4 -10 4 -5 0 -10
-5 -10 -11z"/>
<path d="M4377 2499 c-5 -17 -2 -20 13 -16 11 3 18 0 17 -5 -1 -6 4 -13 11
-15 15 -6 16 11 2 38 -14 25 -36 24 -43 -2z"/>
<path d="M7836 2605 c-13 -34 -5 -72 23 -116 50 -78 100 -113 140 -97 34 12
81 58 81 77 -1 10 -47 43 -112 81 -136 79 -124 74 -132 55z"/>
<path d="M3348 1133 c-25 -4 -28 -9 -28 -42 0 -36 2 -39 50 -59 l50 -21 0 60
c0 32 -4 59 -9 59 -5 0 -15 2 -23 3 -7 2 -25 2 -40 0z"/>
<path d="M3046 1111 c-25 -28 -18 -79 16 -104 25 -19 29 -19 51 -4 52 34 40
119 -19 125 -20 2 -36 -4 -48 -17z"/>
<path d="M2819 2088 c-30 -35 -62 -71 -71 -80 -10 -10 -18 -22 -18 -27 0 -13
59 -61 74 -61 33 0 106 120 106 174 0 13 -8 30 -18 40 -18 15 -22 13 -73 -46z"/>
<path d="M6943 1805 c-29 -13 -53 -28 -53 -32 0 -4 15 -32 33 -61 l33 -52 77
50 c42 27 77 56 77 63 -1 6 -9 22 -19 35 -26 30 -81 29 -148 -3z"/>
<path d="M7058 1674 c-38 -24 -68 -47 -68 -51 0 -5 9 -23 20 -41 24 -39 37
-37 112 10 68 43 72 49 51 92 -9 20 -24 36 -32 35 -9 0 -46 -20 -83 -45z"/>
<path d="M6060 1360 c0 -22 -1 -43 -2 -47 -2 -10 29 -16 47 -9 12 4 11 13 -8
50 -12 25 -25 45 -29 46 -5 0 -8 -18 -8 -40z"/>
<path d="M1576 1298 c-5 -10 -17 -18 -27 -18 -20 0 -26 -15 -9 -25 6 -3 10
-16 10 -27 0 -20 1 -20 18 -5 10 10 24 17 32 17 9 0 9 4 2 13 -5 6 -12 23 -14
37 -4 21 -6 22 -12 8z"/>
<path d="M1510 1203 c0 -6 -6 -13 -13 -15 -8 -2 -11 -11 -8 -23 5 -17 9 -19
26 -10 18 9 19 13 8 35 -7 14 -13 20 -13 13z"/>
<path d="M1501 1058 c-6 -24 -24 -94 -41 -156 -35 -130 -35 -132 -15 -132 8 0
19 17 25 43 6 23 24 89 41 146 16 57 29 112 29 122 0 36 -28 19 -39 -23z"/>
</g>
</svg>
